<svg width="33" height="33" viewBox="0 0 33 33" fill="none" xmlns="http://www.w3.org/2000/svg">
<path d="M0 16.5C0 7.40097 7.40097 0 16.5 0C25.599 0 33 7.40097 33 16.5C33 25.599 25.599 33 16.5 33C7.40097 33 0 25.599 0 16.5ZM31.7184 16.5C31.7184 8.10582 24.8942 1.28155 16.5 1.28155C8.10583 1.28155 1.28155 8.10582 1.28155 16.5C1.28155 24.8942 8.10583 31.7184 16.5 31.7184C24.8942 31.7184 31.7184 24.8878 31.7184 16.5Z" fill="url(#paint0_linear_26_137)"/>
<path d="M9 16C9 15.45 9.38579 15 9.85732 15H22.1427C22.6142 15 23 15.45 23 16C23 16.55 22.6142 17 22.1427 17H9.85732C9.38579 17 9 16.55 9 16Z" fill="url(#paint1_linear_26_137)"/>
<path d="M16 10.8256C16 10.5871 16.1316 10.3487 16.4058 10.1843C16.8775 9.89648 17.5684 9.95404 17.9523 10.2994L23.5001 15C24.5 16 24.5 16 23.5 17L18.5 21.5C17.4115 22.3212 16.8363 22.1137 16.4058 21.8585C16.0917 21.6723 16.0329 20.8536 16.4058 20.5L21.5 16L16.2632 11.3271C16.0987 11.1709 16.011 10.99 16.011 10.8091L16 10.8256Z" fill="url(#paint2_linear_26_137)"/>
<defs>
<linearGradient id="paint0_linear_26_137" x1="16.5022" y1="0" x2="16.5022" y2="33" gradientUnits="userSpaceOnUse">
<stop stop-color="#B0814B"/>
<stop offset="0.51" stop-color="#E3B478"/>
<stop offset="1" stop-color="#E2B377"/>
</linearGradient>
<linearGradient id="paint1_linear_26_137" x1="16.001" y1="15" x2="16.001" y2="17" gradientUnits="userSpaceOnUse">
<stop stop-color="#B0814B"/>
<stop offset="0.51" stop-color="#E3B478"/>
<stop offset="1" stop-color="#E2B377"/>
</linearGradient>
<linearGradient id="paint2_linear_26_137" x1="20.1256" y1="10" x2="20.1256" y2="22.0849" gradientUnits="userSpaceOnUse">
<stop stop-color="#B0814B"/>
<stop offset="0.51" stop-color="#E3B478"/>
<stop offset="1" stop-color="#E2B377"/>
</linearGradient>
</defs>
</svg>
