<svg width="1298" height="772" viewBox="0 0 1298 772" fill="none" xmlns="http://www.w3.org/2000/svg">
<path d="M1254.44 665.508C1239.97 677.365 1218.71 688.778 1190.81 699.746C1162.75 710.566 1131.3 714.717 1096.16 714.42C1061.02 714.124 1026.47 717.236 972.725 701.821C953.678 696.337 929.02 688.185 904.362 676.328C875.128 662.395 847.369 636.605 826.846 611.704C811.195 592.88 799.826 570.647 789.638 547.376C779.745 524.699 771.624 497.426 764.98 465.707C759.369 435.322 756.268 402.714 756.268 367.585C756.268 266.499 780.04 185.275 827.732 123.912C875.423 62.5488 938.913 31.8673 1018.35 31.8673C1074.16 31.8673 1220.19 60.622 1290.91 164.524L1297.85 157.854C1283.38 127.766 1267.73 99.9002 1245.73 80.7799C1221.66 59.7326 1199.22 46.6893 1170.28 34.0906C1169.99 34.0906 1169.54 33.9424 1169.25 33.7941C1123.18 12.5987 1073.13 1.4822 1018.5 1.4822C918.98 1.4822 839.101 35.1281 778.711 102.568C740.913 144.811 714.926 195.354 700.899 254.345C672.993 174.603 649.96 104.347 618.067 15.4149C618.067 15.4149 589.571 7.26278 566.685 0L494.04 174.01L402.201 394.858C360.121 372.329 327.638 357.506 304.899 350.392C259.866 337.052 224.872 331.864 200.067 334.977C154.295 340.461 117.383 354.839 89.0336 378.109C55.0738 406.123 25.396 442.288 0 486.606L8.85906 492.238C25.6913 465.262 44.2953 443.474 64.6711 426.725C110 389.374 164.336 378.257 227.53 393.079L276.107 409.087C302.242 419.611 335.315 436.656 375.034 459.63L244 772H315L395.409 565.014L408.846 528.997H408.698L413.275 517.288L424.497 488.385L594.295 587.989L621.906 604.441L727.624 666.1C837.181 730.724 934.779 765.556 1020.42 770.744C1060.87 774.005 1099.11 770.892 1135.14 761.702C1171.17 752.513 1202.17 737.098 1228.31 715.754C1254.3 694.262 1277.62 668.175 1298 637.494L1290.77 630.379C1281.17 641.792 1269.06 653.353 1254.59 665.359L1254.44 665.508ZM450.336 421.686L566.537 122.874C581.745 153.408 598.43 195.354 616.886 249.01L707.987 518.77L711.383 528.997L723.342 565.014L730.43 581.022L450.188 421.389L450.336 421.686Z" fill="#E3B478"/>
</svg>
