<svg width="65" height="65" viewBox="0 0 65 65" fill="none" xmlns="http://www.w3.org/2000/svg">
<g clip-path="url(#clip0_49_1227)">
<path fill-rule="evenodd" clip-rule="evenodd" d="M6.03287 0H34.3888V10.6762C34.3888 11.165 34.7868 11.556 35.2686 11.556H45.9448V26.2891L32.6781 32.0706V38.9693H13.3226C12.8338 38.9693 12.4428 39.3673 12.4428 39.8561C12.4428 40.3448 12.8408 40.7358 13.3226 40.7358H32.6781V45.2605C32.6781 46.1333 32.7269 46.9991 32.8317 47.851H13.3226C12.8338 47.851 12.4428 48.235 12.4428 48.7238C12.4428 49.2126 12.8408 49.6036 13.3226 49.6036H33.111C33.9279 53.6604 35.869 57.3612 38.6271 60.3287H6.03287C2.71619 60.3287 0 57.6125 0 54.2958V6.03287C0 2.71619 2.71619 0 6.03287 0ZM49.7223 26.5614L34.4376 33.2227V45.2535C34.4376 54.7078 40.9593 62.7167 49.7223 65.007C58.4853 62.7167 65.007 54.7148 65.007 45.2535V33.2227L49.7223 26.5614ZM38.7039 43.6196L45.0371 54.0794C45.3443 54.5891 46.0565 54.645 46.4475 54.2051L60.6569 38.5294C60.9781 38.1663 60.9571 37.6147 60.594 37.2935C60.231 36.9723 59.6793 36.9932 59.3581 37.3563L45.9308 52.1662L40.2052 42.7189C39.9538 42.3069 39.4162 42.1742 39.0042 42.4186C38.5852 42.67 38.4526 43.2076 38.7039 43.6266V43.6196ZM36.1553 0.879794V9.79643H45.072L36.1553 0.879794ZM4.49672 39.6256L6.14459 42.3418C6.45182 42.8446 7.15705 42.9144 7.55505 42.4675L11.2348 38.4037C11.556 38.0406 11.5351 37.489 11.172 37.1678C10.8089 36.8466 10.2573 36.8675 9.93608 37.2306L7.03137 40.4356L5.99796 38.7249C5.74659 38.3129 5.20894 38.1803 4.79697 38.4246C4.385 38.676 4.25234 39.2137 4.50371 39.6256H4.49672ZM9.07025 45.8819L7.47126 47.4809L5.87227 45.8819C5.53013 45.5398 4.97153 45.5398 4.62939 45.8819C4.28725 46.2241 4.28725 46.7827 4.62939 47.1248L6.22838 48.7238L4.62939 50.3228C4.28725 50.6649 4.28725 51.2235 4.62939 51.5657C4.97153 51.9078 5.53013 51.9078 5.87227 51.5657L7.47126 49.9667L9.07025 51.5657C9.4124 51.9078 9.971 51.9078 10.3131 51.5657C10.6553 51.2235 10.6553 50.6649 10.3131 50.3228L8.71415 48.7238L10.3131 47.1248C10.6553 46.7827 10.6553 46.2241 10.3131 45.8819C9.971 45.5398 9.4124 45.5398 9.07025 45.8819ZM25.2208 12.359L24.9694 10.4388C24.8926 9.83135 24.3829 9.38447 23.7684 9.38447H22.1764C21.5619 9.38447 21.0522 9.83135 20.9754 10.4388L20.724 12.359C19.8652 12.5755 19.0482 12.9176 18.3081 13.3645L16.7719 12.1844C16.2832 11.8074 15.6128 11.8563 15.1799 12.2892L14.0558 13.4134C13.6228 13.8463 13.5809 14.5236 13.951 15.0054L15.1311 16.5415C14.6842 17.2886 14.349 18.0986 14.1256 18.9575L12.2054 19.2088C11.5979 19.2856 11.151 19.7954 11.151 20.4098V22.0018C11.151 22.6163 11.5979 23.126 12.2054 23.2028L14.1256 23.4542C14.342 24.313 14.6842 25.13 15.1311 25.8701L13.951 27.4063C13.5809 27.895 13.6228 28.5654 14.0558 28.9983L15.1799 30.1225C15.6128 30.5554 16.2901 30.5973 16.7719 30.2272L18.3081 29.0472C19.0552 29.494 19.8652 29.8292 20.724 30.0526L20.9754 31.9728C21.0522 32.5803 21.5619 33.0272 22.1764 33.0272H23.7684C24.3829 33.0272 24.8926 32.5803 24.9694 31.9728L25.2208 30.0526C26.0796 29.8362 26.8966 29.494 27.6367 29.0472L29.1728 30.2272C29.6616 30.5973 30.3319 30.5554 30.7649 30.1225L31.889 28.9983C32.3219 28.5654 32.3638 27.8881 31.9938 27.4063L30.8137 25.8701C31.2606 25.123 31.5958 24.313 31.8192 23.4542L33.7394 23.2028C34.3469 23.126 34.7937 22.6163 34.7937 22.0018V20.4098C34.7937 19.7954 34.3469 19.2856 33.7394 19.2088L31.8192 18.9575C31.6027 18.0986 31.2606 17.2817 30.8137 16.5415L31.9938 15.0054C32.3638 14.5166 32.3219 13.8463 31.889 13.4134L30.7649 12.2892C30.3319 11.8563 29.6546 11.8144 29.1728 12.1844L27.6367 13.3645C26.8896 12.9176 26.0796 12.5824 25.2208 12.359ZM22.9724 15.8852C20.0328 15.8852 17.6448 18.2662 17.6448 21.2128C17.6448 24.1594 20.0258 26.5404 22.9724 26.5404C25.919 26.5404 28.3 24.1594 28.3 21.2128C28.3 18.2732 25.912 15.8852 22.9724 15.8852Z" fill="url(#paint0_linear_49_1227)"/>
</g>
<defs>
<linearGradient id="paint0_linear_49_1227" x1="0" y1="32.4991" x2="65.007" y2="32.4991" gradientUnits="userSpaceOnUse">
<stop stop-color="#B0814B"/>
<stop offset="0.51" stop-color="#E3B478"/>
<stop offset="1" stop-color="#E2B377"/>
</linearGradient>
<clipPath id="clip0_49_1227">
<rect width="65" height="65" fill="white"/>
</clipPath>
</defs>
</svg>
