<svg width="46" height="65" viewBox="0 0 46 65" fill="none" xmlns="http://www.w3.org/2000/svg">
<g clip-path="url(#clip0_49_1241)">
<path d="M41.9412 56.875V53.652C41.9412 45.9739 37.8282 38.8104 31.1988 34.9375L27.8029 32.9604C27.5729 32.825 27.5459 32.6218 27.5459 32.5135C27.5459 32.4052 27.5729 32.1885 27.8029 32.0666L31.1988 30.0895C37.8282 26.2166 41.9412 19.0531 41.9412 11.375V8.1385C44.1735 8.1385 46 6.31038 46 4.076C46 1.84163 44.1735 0.0135025 41.9412 0.0135025H4.05882C1.82647 -3.91817e-05 0 1.82809 0 4.06246C0 6.29684 1.82647 8.12496 4.05882 8.12496V11.3614C4.05882 19.0395 8.17176 26.2031 14.8012 30.076L18.1971 32.0531C18.4271 32.1885 18.4541 32.3916 18.4541 32.5C18.4541 32.6083 18.4271 32.825 18.1971 32.9468L14.8012 34.9239C8.17176 38.7968 4.05882 45.9604 4.05882 53.6385V56.8614C1.82647 56.8614 0 58.6895 0 60.9239C0 63.1583 1.82647 64.9864 4.05882 64.9864H41.9412C44.1735 64.9864 46 63.1583 46 60.9239C46 58.6895 44.1735 56.8614 41.9412 56.8614V56.875ZM6.76471 53.652C6.76471 46.9354 10.3635 40.6656 16.1676 37.2802L19.5635 35.3031C20.5647 34.7208 21.16 33.6781 21.16 32.5135C21.16 31.3489 20.5647 30.3062 19.5635 29.7239L16.1676 27.7468C10.3771 24.3614 6.76471 18.0916 6.76471 11.375V8.1385H39.2353V11.375C39.2353 18.0916 35.6365 24.3614 29.8324 27.7468L26.4365 29.7239C25.4353 30.3062 24.84 31.3489 24.84 32.5135C24.84 33.6781 25.4353 34.7208 26.4365 35.3031L29.8324 37.2802C35.6229 40.6656 39.2353 46.9354 39.2353 53.652V56.875H38.0988C36.6376 53.3541 30.8065 40.625 23 40.625C15.1935 40.625 9.36235 53.3541 7.90118 56.875H6.76471V53.652Z" fill="url(#paint0_linear_49_1241)"/>
</g>
<defs>
<linearGradient id="paint0_linear_49_1241" x1="0" y1="32.4955" x2="46" y2="32.4955" gradientUnits="userSpaceOnUse">
<stop stop-color="#B0814B"/>
<stop offset="0.51" stop-color="#E3B478"/>
<stop offset="1" stop-color="#E2B377"/>
</linearGradient>
<clipPath id="clip0_49_1241">
<rect width="46" height="65" fill="white"/>
</clipPath>
</defs>
</svg>
