<svg width="71" height="71" viewBox="0 0 71 71" fill="none" xmlns="http://www.w3.org/2000/svg">
<g clip-path="url(#clip0_49_1238)">
<path fill-rule="evenodd" clip-rule="evenodd" d="M57.8583 7.92947C51.7578 2.97051 43.978 0 35.5086 0C29.5865 0 23.997 1.45279 19.0809 4.02561C20.3708 4.44764 22.0906 4.91026 23.4859 4.91026C25.5222 4.91026 29.8867 4.48823 32.799 5.05636C34.4702 5.38912 35.7114 6.09522 36.2549 7.07727C37.2852 8.93587 38.1208 11.8739 38.0802 13.7406C38.0478 15.0392 37.5448 15.932 36.8877 16.3216C36.4172 16.5975 35.8655 16.7598 35.1922 16.914C34.1051 17.1738 32.6043 17.5065 30.5762 19.3651C28.7104 21.0776 27.8585 22.2626 27.1771 23.1635C26.6173 23.902 26.1387 24.4702 25.441 24.9896C24.7515 25.5009 24.354 26.207 23.851 26.7102C23.0235 27.5381 22.0419 28.09 20.2896 27.7085C19.2188 27.4813 18.0425 27.2134 17.0041 27.2297C16.3795 27.2297 15.7954 27.2946 15.5033 27.8059C15.3005 28.1549 15.3086 28.5607 15.4709 28.9178C15.7954 29.6483 16.6472 30.2002 17.7667 30.2651C18.87 30.33 19.5758 30.6871 20.0706 31.1497C20.5655 31.6043 20.8575 32.1886 21.0441 32.8054C21.1415 33.1301 21.2145 33.471 21.2956 33.7794C21.4903 33.6495 21.7499 33.4872 21.9446 33.3573C22.9911 32.6431 24.281 31.9695 26.0414 32.3347C28.8969 32.9272 29.7569 33.6658 33.0343 36.1087C34.5594 37.245 35.0056 38.1783 35.2976 38.9412C35.4031 39.2253 35.4274 39.485 35.6221 39.7042C35.8412 39.9395 36.2306 40.0775 36.9526 40.2642C38.7779 40.743 40.3679 40.8323 41.3657 41.1407C42.3068 41.4329 42.8828 41.9361 43.1505 42.5935C43.3857 43.1698 43.4263 43.9732 42.9071 45.1176C41.7633 47.658 40.5707 49.2487 40.4166 50.9044C40.3111 52.0488 39.5891 52.7874 38.64 53.3799C38.3155 53.5828 37.9666 53.7613 37.6665 53.9886C37.4961 54.1103 37.3258 54.2402 37.3258 54.4918C37.3258 55.206 37.5205 55.693 37.6016 56.115C37.707 56.6507 37.6989 57.1295 37.5205 57.6084C37.3176 58.1765 36.8309 58.8177 35.5654 59.5562C34.5756 60.1325 33.7968 60.449 33.2046 60.7412C32.7909 60.9441 32.5232 61.0658 32.4421 61.5609C32.3853 61.9343 32.6043 62.4618 32.8315 63.0218C33.3344 64.2879 34.0727 65.6677 34.3485 66.5037C34.6649 67.4776 34.4053 68.1675 34.1132 68.4921C33.805 68.833 33.083 69.32 32.1744 69.5391C30.8439 69.8637 29.1646 69.6852 28.0208 68.0295C27.0635 66.6579 25.7493 64.499 25.1733 62.681C24.8651 61.6989 24.7758 60.7899 24.9381 60.0757C24.9705 59.9296 24.9867 59.751 24.9949 59.678L24.573 58.9394C24.3864 58.5255 24.1917 57.9411 24.0863 56.951C23.9402 55.5712 24.2972 54.0616 24.4027 52.69C24.4594 51.8946 24.4757 51.1398 23.7374 50.6609C21.904 49.4679 19.3973 46.7896 18.3427 44.4927C17.7586 43.2184 17.6288 42.0254 17.9614 41.1326C18.2859 40.2642 18.659 39.4039 18.8862 38.9088C17.6937 38.2108 15.3167 36.8067 14.3513 35.5974C13.5158 34.5504 12.9641 33.9174 11.4714 33.8768C8.76188 33.8037 6.75811 33.4872 6.2308 30.7034C6.13345 30.2002 5.61426 29.3967 4.99771 28.4877C4.02422 27.0511 2.74246 25.4522 1.82575 24.3403C0.665673 27.8465 0.0410156 31.588 0.0410156 35.4838C0.0410156 55.0842 15.9414 70.9919 35.5329 70.9919C45.3165 70.9919 54.1834 67.0231 60.6084 60.6032C60.6571 60.2055 60.5922 59.7429 60.4786 59.2397C60.2109 58.0629 59.6512 56.7237 59.0833 55.4008C58.4586 53.9561 57.8096 52.5277 57.4284 51.3102C57.112 50.312 56.9822 49.4273 57.0714 48.7374C57.2337 47.4957 57.5176 46.8058 57.7366 46.2458C57.9313 45.7588 58.0125 45.4504 57.6798 44.4927C56.9497 42.3663 55.6842 39.8827 54.1672 38.9656C53.7291 38.6978 53.364 38.8844 52.9179 39.0792C51.9849 39.4931 50.8897 40.1262 49.3403 40.4995C48.2451 40.7593 47.442 40.6537 46.8254 40.3697C46.144 40.0613 45.6491 39.5418 45.284 38.8357C44.8216 37.9511 44.5945 36.685 44.0996 35.5081C43.0288 32.9678 42.8828 31.5069 42.9558 29.8106C43.0126 28.5607 43.5318 28.0737 44.2943 27.6598C44.7243 27.4244 45.3976 27.3108 46.0061 26.3856C47.0201 24.8354 47.6042 24.665 48.4966 24.5432C49.0239 24.4702 49.7783 24.5026 51.2791 23.9345C54.8405 22.5953 57.2904 23.3583 59.4402 23.5125C61.5251 23.6585 62.9692 24.0806 66.0681 24.9409C67.7636 25.4116 68.9237 24.9815 69.3861 24.7542C69.1427 23.967 68.8588 23.1878 68.5586 22.4249C67.5446 22.4655 65.054 22.4898 62.8312 21.7837C61.6468 21.4104 61.1033 21.1344 60.6571 20.8909C60.146 20.6069 59.8134 20.3796 58.2802 20.0144C57.7042 19.8764 57.1444 20.0225 56.6252 20.2579C55.9194 20.5744 55.2623 21.0614 54.6539 21.5159C53.5263 22.36 52.496 23.0498 51.701 23.1472C51.125 23.2203 50.6545 23.1067 50.2651 22.9037C49.7053 22.5953 49.3078 22.0597 49.1212 21.3779C48.9265 20.6637 48.9914 19.7628 49.2754 19.0242C49.4944 18.4399 49.8595 17.961 50.2813 17.6607C51.2629 16.9627 53.4938 14.8688 55.457 13.6108C55.5787 13.5296 55.5868 13.3997 55.5868 13.2861C55.5868 13.1238 55.5625 12.9615 55.53 12.7992C55.4165 12.2067 55.2461 11.6223 55.2137 11.1516C55.165 10.4698 55.3435 9.92604 55.6923 9.52023C55.9519 9.22805 56.317 8.97645 56.8767 8.86283C57.2255 8.78978 57.4608 8.53006 57.6474 8.27035C57.7366 8.1486 57.8178 8.02686 57.8827 7.897H57.907L57.8583 7.92947ZM16.1604 5.73811C10.3114 9.56081 5.64671 15.0636 2.87225 21.5484C3.58615 22.3924 5.68727 24.8922 7.14751 27.0267C8.03176 28.3172 8.65642 29.5103 8.79433 30.2326C8.84301 30.5086 8.91602 30.7196 9.05393 30.8576C9.27296 31.0929 9.61369 31.1335 9.98686 31.1822C10.4493 31.239 10.9685 31.2553 11.5282 31.2634C14.0106 31.3364 15.0085 32.2454 16.3957 33.9742C17.4178 35.2565 20.3221 36.7093 20.89 37.0583C21.5471 37.4803 21.8148 38.0485 21.685 38.8844C21.5957 39.4769 21.0117 40.4671 20.4276 42.0578C20.3545 42.2526 20.4113 42.488 20.4843 42.7396C20.606 43.1941 20.8494 43.6892 21.1496 44.1924C22.1636 45.8724 23.8672 47.6255 25.1652 48.4696C26.5281 49.3624 26.9986 50.5879 27.0392 52.0001C27.0798 53.4529 26.5362 55.1492 26.6904 56.6831C26.8202 57.9168 27.1528 58.1603 27.3231 58.4768C27.5665 58.9232 27.7612 59.4264 27.4935 60.6519C27.3799 61.1551 27.6152 61.8288 27.9072 62.5511C28.4832 63.9714 29.4486 65.5054 30.1706 66.5361C30.5438 67.0799 31.1116 67.0961 31.5497 66.9906C31.5903 66.9825 31.6471 66.9663 31.6876 66.95C31.6633 66.8932 31.6471 66.8283 31.6146 66.7796C31.3063 66.0735 30.8764 65.197 30.5113 64.3529C30.0083 63.1436 29.7082 61.9586 29.8299 61.1632C30.0489 59.7997 30.6005 59.191 31.574 58.6391C32.1825 58.2982 33.0505 57.9898 34.2349 57.3081C34.5107 57.1457 34.7217 57.0078 34.8839 56.8698C34.9326 56.8292 34.9894 56.7724 35.0218 56.7399C35.0056 56.6507 34.965 56.4478 34.9407 56.3179C34.8271 55.8309 34.6973 55.2628 34.6973 54.5242C34.6973 53.1932 35.3869 52.3816 36.3198 51.7566C36.6686 51.5213 37.0499 51.3184 37.3988 51.0911C37.5691 50.9775 37.7882 50.9125 37.8044 50.6934C37.9748 48.8105 39.216 46.96 40.5139 44.0788C40.5707 43.9651 40.6113 43.819 40.6437 43.7135C40.587 43.6892 40.5302 43.673 40.4734 43.6567C40.1489 43.5674 39.7595 43.5025 39.3295 43.4376C38.4534 43.2996 37.415 43.1454 36.2874 42.8532C34.2674 42.3257 33.6427 41.6277 33.2533 40.9216C33.1397 40.7106 33.0505 40.4914 32.9613 40.2642C32.7666 39.7447 32.5881 39.1036 31.4605 38.2676C28.6536 36.1655 27.9559 35.4675 25.5059 34.9562C24.7839 34.8101 24.2323 35.0617 23.7699 35.3458C23.2831 35.6461 22.8613 35.9789 22.48 36.2061C21.6201 36.7093 20.8251 36.7986 20.0544 36.3684C19.3811 36.0032 18.9917 35.3539 18.7645 34.5261C18.6834 34.2258 18.6185 33.9011 18.5211 33.5846C18.4643 33.4223 18.4238 33.2518 18.2859 33.122C18.148 32.9921 17.9208 32.9515 17.6207 32.9353C13.6618 32.6999 11.7635 29.0964 13.2399 26.5398C13.8727 25.4441 14.903 24.876 16.1685 24.7055C17.5639 24.5189 19.308 24.8597 20.8494 25.1925C21.5876 25.3548 21.9202 25.0221 22.2529 24.6325C22.7315 24.0725 23.2101 23.4394 23.8916 22.9281C24.3864 22.5629 24.7109 22.1408 25.1084 21.6214C25.8548 20.6393 26.7796 19.3489 28.8239 17.4822C31.0143 15.4694 32.726 14.8769 34.0321 14.5441C34.5838 14.4061 35.0381 14.3575 35.4112 14.1951C35.4356 14.0003 35.4923 13.489 35.4518 13.1076C35.322 11.6304 34.7054 9.69879 33.9915 8.40832C33.8617 8.17295 33.5697 8.05121 33.2371 7.92947C32.6611 7.71845 31.9391 7.59671 31.1684 7.51555C28.4994 7.26395 25.1896 7.58048 23.5184 7.58048C20.6709 7.58048 16.6634 5.97348 16.1929 5.77869L16.1604 5.73811ZM70.0594 27.3514C69.0616 27.7572 67.4553 28.09 65.3299 27.5056C62.4743 26.7102 61.152 26.2963 59.2293 26.1664C57.3716 26.0366 55.2542 25.2737 52.1715 26.4262C50.6788 26.9862 49.7783 27.0836 49.1537 27.1485C48.959 27.1647 48.813 27.1566 48.675 27.2053C48.4966 27.2783 48.4155 27.4813 48.1721 27.8546C47.4744 28.9178 46.7443 29.3885 46.1196 29.7132C45.933 29.8106 45.6816 29.9323 45.5436 29.9973C45.4869 31.3364 45.6248 32.5051 46.4766 34.5179C46.8741 35.4513 47.085 36.4334 47.3933 37.2369C47.5069 37.5453 47.6042 37.8293 47.8314 37.9835C48.0261 38.1134 48.31 38.0647 48.6994 37.9673C50.3949 37.5696 51.4657 36.7905 52.4311 36.4577C53.4614 36.1006 54.4105 36.0844 55.4895 36.7337C57.4284 37.8943 59.205 40.954 60.1379 43.6648C60.7058 45.3205 60.576 46.0591 60.3002 46.8382C60.1217 47.3496 59.7972 47.8933 59.6512 49.1026C59.6025 49.4922 59.7323 49.9873 59.9108 50.5554C60.2677 51.6917 60.8843 53.0309 61.4683 54.3863C62.02 55.6524 62.5473 56.9428 62.8718 58.1116C67.9502 51.9676 71.0005 44.095 71.0005 35.5081C71.0005 32.6999 70.676 29.9729 70.0594 27.3595V27.3514ZM59.8621 9.68256C59.8215 9.73937 59.781 9.8043 59.7404 9.85299C59.2942 10.4698 58.6696 11.0298 57.8908 11.3139C57.9638 11.6467 58.0611 12.1336 58.1179 12.4826C58.337 13.7731 58.1504 15.0149 56.8524 15.8508C54.9297 17.0845 52.7475 19.1379 51.7902 19.8277C51.6848 19.9008 51.6766 20.0793 51.6442 20.2335C51.6361 20.2985 51.628 20.3796 51.628 20.4527C51.774 20.3715 51.9362 20.2417 52.1228 20.1199C52.6339 19.7628 53.1937 19.3164 53.794 18.8944C55.3029 17.8393 57.0471 17.0358 58.8724 17.4741C60.5273 17.8636 61.0952 18.1558 61.6225 18.448C62.0362 18.6834 62.4256 18.9268 63.5938 19.2921C64.9161 19.7141 66.352 19.8196 67.3742 19.8277C65.4921 16.005 62.9367 12.5638 59.8702 9.66632L59.8621 9.68256Z" fill="url(#paint0_linear_49_1238)"/>
</g>
<defs>
<linearGradient id="paint0_linear_49_1238" x1="0.0410156" y1="35.4911" x2="71.0005" y2="35.4911" gradientUnits="userSpaceOnUse">
<stop stop-color="#B0814B"/>
<stop offset="0.51" stop-color="#E3B478"/>
<stop offset="1" stop-color="#E2B377"/>
</linearGradient>
<clipPath id="clip0_49_1238">
<rect width="71" height="71" fill="white"/>
</clipPath>
</defs>
</svg>
