<svg width="72" height="71" viewBox="0 0 72 71" fill="none" xmlns="http://www.w3.org/2000/svg">
<g clip-path="url(#clip0_49_1234)">
<path d="M44.001 33.4735H25.146C24.183 33.4735 23.4 34.2606 23.4 35.2286V62.7764H10.593V30.678L34.569 11.2001L58.545 30.678V39.1188C58.32 39.1188 58.104 39.1007 57.879 39.1007C53.172 39.1007 48.897 40.9643 45.738 43.995V35.2195C45.738 34.2515 44.955 33.4645 43.992 33.4645L44.001 33.4735ZM26.883 62.7764H41.31C40.644 60.9127 40.284 58.8953 40.284 56.8054C40.284 53.8742 41.004 51.1059 42.264 48.6632V36.9746H26.892V62.7764H26.883ZM17.235 9.58066H10.593V14.9726L17.235 9.58066ZM20.25 3.40163H9.027V6.07951H20.25V3.40163ZM0 28.0906H8.244L33.48 7.59034C34.119 7.07467 35.028 7.07467 35.667 7.59034L60.912 28.0906H69.156L34.569 0L0 28.0906ZM57.879 42.6109C65.664 42.6109 72 48.9799 72 56.8054C72 64.631 65.664 71 57.879 71C50.094 71 43.758 64.631 43.758 56.8054C43.758 48.9799 50.094 42.6109 57.879 42.6109ZM57.879 45.9763C56.916 45.9763 56.133 46.7634 56.133 47.7314V48.3737C53.865 49.0522 52.227 51.0245 52.227 53.3405C52.227 57.4116 55.539 58.1082 57.519 58.5243C59.832 59.0129 60.03 59.2571 60.03 60.2794C60.03 61.2294 59.058 61.9983 57.87 61.9983C57.069 61.9983 56.331 61.6365 55.944 61.0575C55.413 60.2523 54.333 60.0261 53.532 60.5599C52.731 61.0937 52.506 62.1793 53.037 62.9845C53.757 64.0791 54.855 64.8662 56.124 65.2462V65.8795C56.124 66.8475 56.907 67.6346 57.87 67.6346C58.833 67.6346 59.616 66.8475 59.616 65.8795V65.2462C61.884 64.5677 63.522 62.5954 63.522 60.2794C63.522 56.2174 60.219 55.5117 58.23 55.0956C55.908 54.607 55.71 54.3628 55.71 53.3405C55.71 52.4086 56.7 51.6216 57.879 51.6216C58.68 51.6216 59.418 51.9834 59.805 52.5624C60.336 53.3676 61.416 53.5938 62.217 53.06C63.018 52.5262 63.243 51.4406 62.712 50.6354C61.992 49.5408 60.894 48.7446 59.625 48.3737V47.7404C59.625 46.7724 58.842 45.9853 57.879 45.9853V45.9763Z" fill="url(#paint0_linear_49_1234)"/>
</g>
<defs>
<linearGradient id="paint0_linear_49_1234" x1="0" y1="35.4952" x2="72" y2="35.4952" gradientUnits="userSpaceOnUse">
<stop stop-color="#B0814B"/>
<stop offset="0.51" stop-color="#E3B478"/>
<stop offset="1" stop-color="#E2B377"/>
</linearGradient>
<clipPath id="clip0_49_1234">
<rect width="72" height="71" fill="white"/>
</clipPath>
</defs>
</svg>
