<svg width="30" height="30" viewBox="0 0 30 30" fill="none" xmlns="http://www.w3.org/2000/svg">
<path fill-rule="evenodd" clip-rule="evenodd" d="M30 15C30 23.2843 23.2843 30 15 30C6.71573 30 0 23.2843 0 15C0 6.71573 6.71573 0 15 0C23.2843 0 30 6.71573 30 15ZM18.8154 7.31332C17.8199 7.26665 17.5221 7.25776 14.9999 7.25776C12.4799 7.25776 12.1799 7.26888 11.1843 7.31332C10.2643 7.35554 9.76433 7.50887 9.431 7.63776C8.98878 7.80888 8.67545 8.01332 8.34433 8.34443C8.01322 8.67554 7.80878 8.9911 7.63767 9.4311C7.50878 9.76443 7.35544 10.2644 7.31322 11.1844C7.26656 12.18 7.25767 12.48 7.25767 15C7.25767 17.52 7.26878 17.82 7.31322 18.8155C7.35544 19.7355 7.50878 20.2355 7.63767 20.5689C7.80878 21.0111 8.01322 21.3244 8.34433 21.6555C8.67545 21.9867 8.991 22.1911 9.431 22.3622C9.76433 22.4911 10.2643 22.6444 11.1843 22.6867C12.1799 22.7333 12.4777 22.7422 14.9999 22.7422C17.5221 22.7422 17.8199 22.7311 18.8154 22.6867C19.7354 22.6444 20.2354 22.4911 20.5688 22.3622C21.011 22.1911 21.3243 21.9867 21.6554 21.6555C21.9866 21.3244 22.191 21.0089 22.3621 20.5689C22.491 20.2355 22.6443 19.7355 22.6866 18.8155C22.7332 17.82 22.7421 17.52 22.7421 15C22.7421 12.48 22.731 12.18 22.6866 11.1844C22.6443 10.2644 22.491 9.76443 22.3621 9.4311C22.191 8.98887 21.9866 8.67554 21.6554 8.34443C21.3243 8.01332 21.0088 7.80888 20.5688 7.63776C20.2354 7.50887 19.7354 7.35554 18.8154 7.31332ZM11.1066 5.61332C12.1132 5.56665 12.4354 5.55554 14.9999 5.55554C17.5643 5.55554 17.8866 5.56665 18.8932 5.61332C19.8999 5.65999 20.5866 5.81999 21.1866 6.05332C21.8088 6.29332 22.3354 6.61776 22.8599 7.14221C23.3843 7.66887 23.7066 8.19554 23.9488 8.81554C24.1843 9.41776 24.3421 10.1044 24.3888 11.1089C24.4354 12.1155 24.4466 12.4378 24.4466 15.0022C24.4466 17.5667 24.4354 17.8889 24.3888 18.8955C24.3421 19.9022 24.1821 20.5889 23.9488 21.1889C23.7088 21.8111 23.3843 22.3378 22.8599 22.8622C22.3332 23.3867 21.8066 23.7089 21.1866 23.9511C20.5843 24.1867 19.8977 24.3444 18.8932 24.3911C17.8866 24.4378 17.5643 24.4489 14.9999 24.4489C12.4354 24.4489 12.1132 24.4378 11.1066 24.3911C10.0999 24.3444 9.41322 24.1844 8.81322 23.9511C8.191 23.7111 7.66433 23.3867 7.13989 22.8622C6.61545 22.3355 6.29322 21.8089 6.051 21.1889C5.81544 20.5867 5.65767 19.9 5.611 18.8955C5.56433 17.8889 5.55322 17.5667 5.55322 15.0022C5.55322 12.4378 5.56433 12.1155 5.611 11.1089C5.65767 10.1022 5.81767 9.41554 6.051 8.81554C6.291 8.19332 6.61545 7.66665 7.13989 7.14221C7.66656 6.61776 8.19322 6.29554 8.81322 6.05332C9.41545 5.81776 10.1021 5.65999 11.1066 5.61332ZM14.9998 10.1511C12.322 10.1511 10.1509 12.3222 10.1509 15C10.1509 17.6778 12.322 19.8489 14.9998 19.8489C17.6775 19.8489 19.8487 17.6778 19.8487 15C19.8487 12.3222 17.6775 10.1511 14.9998 10.1511ZM14.9998 18.1489C13.262 18.1489 11.8509 16.74 11.8509 15C11.8509 13.26 13.2598 11.8511 14.9998 11.8511C16.7398 11.8511 18.1487 13.26 18.1487 15C18.1487 16.74 16.7398 18.1489 14.9998 18.1489ZM21.1754 9.95777C21.1754 10.5837 20.6679 11.0911 20.042 11.0911C19.4161 11.0911 18.9087 10.5837 18.9087 9.95777C18.9087 9.33184 19.4161 8.82443 20.042 8.82443C20.6679 8.82443 21.1754 9.33184 21.1754 9.95777Z" fill="#23B0BA"/>
</svg>
