<svg width="29" height="29" viewBox="0 0 29 29" fill="none" xmlns="http://www.w3.org/2000/svg">
<path d="M10.408 20.7638V11.1072H7.19669V20.7648H10.407L10.408 20.7638ZM8.80234 9.78719C9.92125 9.78719 10.6194 9.04469 10.6194 8.11759C10.5988 7.17091 9.92125 6.45006 8.82503 6.45006C7.72469 6.45006 7.00797 7.17194 7.00797 8.11759C7.00797 9.04572 7.70509 9.78822 8.78275 9.78822L8.80234 9.78719ZM21.9838 20.7638V15.227C21.9838 12.2601 20.3998 10.8793 18.2888 10.8793C16.5831 10.8793 15.82 11.8177 15.3951 12.4746V11.1051H12.1848C12.2271 12.0126 12.1848 20.7638 12.1848 20.7638H15.3951V15.3704C15.3951 15.0816 15.4157 14.7929 15.5003 14.5887C15.7313 14.0112 16.2603 13.4141 17.1462 13.4141C18.3084 13.4141 18.7756 14.2989 18.7756 15.5972V20.7648H21.9848L21.9838 20.7638ZM14.5 0.0625C22.4736 0.0625 28.9375 6.52534 28.9375 14.5C28.9375 22.4736 22.4736 28.9375 14.5 28.9375C6.52534 28.9375 0.0625 22.4736 0.0625 14.5C0.0625 6.52534 6.52534 0.0625 14.5 0.0625Z" fill="#54595F"/>
</svg>
