<svg width="49" height="40" viewBox="0 0 49 40" fill="none" xmlns="http://www.w3.org/2000/svg">
<g clip-path="url(#clip0_10_24)">
<path d="M48.0554 4.07731L47.8621 4.05315C43.9229 3.73301 40.455 4.69344 37.2409 6.07671C34.0448 7.52642 31.1508 9.52582 28.704 11.9964C26.2571 14.4246 24.2331 17.2939 22.7831 20.447C22.3119 19.3174 21.6533 18.2785 20.8679 17.3603C19.5931 15.8502 17.9498 14.6361 16.0165 13.8689C14.0348 13.1259 11.8236 12.7393 9.01418 13.3555L8.73626 13.4219C8.69397 13.4461 8.65168 13.4642 8.60939 13.5065C8.50064 13.6152 8.5248 13.7602 8.63355 13.8689C11.2315 16.2972 13.8052 18.7013 15.9983 21.4678C17.7867 23.4491 19.3213 25.6176 20.7652 27.8526C21.2546 28.5775 21.7258 29.3204 22.1911 30.0453C22.1911 30.0453 22.1911 30.0695 22.2152 30.0695L23.1517 28.7043C26.0879 24.3008 29.3867 20.1691 33.199 16.5086C37.6456 11.9299 42.8234 8.10027 48.2065 4.60887C48.2729 4.56659 48.3152 4.48202 48.3334 4.39746C48.3334 4.22832 48.2246 4.07731 48.0554 4.07731Z" fill="url(#paint0_linear_10_24)"/>
<path d="M35.0658 18.0429C35.1444 18.6832 35.1927 19.3416 35.1927 20C35.1927 28.3781 28.3838 35.1857 20.004 35.1857C11.6242 35.1857 4.81521 28.3781 4.81521 20C4.81521 17.7831 5.29854 15.6811 6.15042 13.7904C6.53708 12.9206 6.98417 12.1051 7.53396 11.35C10.2769 7.39958 14.8383 4.81426 20.01 4.81426C23.5746 4.81426 26.8673 6.05255 29.4531 8.10631C30.74 7.04923 32.1054 6.10088 33.5494 5.27937C29.9848 2.00544 25.23 0 20.016 0C8.97792 0 0 8.9701 0 20C0 31.0299 8.97792 40 20.004 40C31.03 40 40.0079 31.0239 40.0079 20C40.0079 17.9946 39.7179 16.0495 39.156 14.2374C37.6819 15.4878 36.3165 16.7563 35.0658 18.0429Z" fill="url(#paint1_linear_10_24)"/>
</g>
<defs>
<linearGradient id="paint0_linear_10_24" x1="8.53891" y1="17.0286" x2="48.3334" y2="17.0286" gradientUnits="userSpaceOnUse">
<stop stop-color="#B0814B"/>
<stop offset="0.51" stop-color="#E3B478"/>
<stop offset="1" stop-color="#E2B377"/>
</linearGradient>
<linearGradient id="paint1_linear_10_24" x1="0" y1="19.9973" x2="40.0079" y2="19.9973" gradientUnits="userSpaceOnUse">
<stop stop-color="#B0814B"/>
<stop offset="0.51" stop-color="#E3B478"/>
<stop offset="1" stop-color="#E2B377"/>
</linearGradient>
<clipPath id="clip0_10_24">
<rect width="48.3333" height="40" fill="white"/>
</clipPath>
</defs>
</svg>
