<svg width="297" height="58" viewBox="0 0 297 58" fill="none" xmlns="http://www.w3.org/2000/svg">
<g clip-path="url(#clip0_111_692)">
<path d="M99.0739 39.2497C98.6194 38.9825 98.2425 38.526 97.9654 37.8802L89.6631 17.9381L89.6298 17.7043H89.5633L89.2529 16.9583L89.0977 17.7043H88.7541V18.0161C88.7541 18.1051 88.732 18.2944 88.5989 18.6953C88.4881 19.0405 88.3551 19.3968 88.1999 19.7642C88.0447 20.1316 87.8563 20.577 87.6235 21.1003L80.5072 38.0694C80.219 38.6039 79.8754 38.9936 79.4763 39.2386C79.0219 39.5058 78.5785 39.6506 78.1573 39.6506H77.5587V40.597H84.4311V39.6506H83.8326C83.6441 39.6506 83.4668 39.5949 83.2783 39.4724C83.101 39.3499 82.968 39.1829 82.8904 38.9602C82.8239 38.7709 82.8239 38.5482 82.9015 38.2699L84.9521 33.0255H92.8887L94.8617 38.281C95.0502 38.9157 94.8285 39.1606 94.7509 39.2497C94.4959 39.5281 94.2299 39.6617 93.9306 39.6617H93.3321V40.6081H100.947V39.6617H100.382C99.9606 39.6617 99.5173 39.5281 99.0517 39.2497H99.0739ZM89.0202 22.6481L92.3234 31.4555H85.5839L89.0202 22.6481Z" fill="#0D1D32"/>
<path d="M119.359 35.1073C119.037 35.8756 118.66 36.5659 118.239 37.1672C117.84 37.7462 117.308 38.1916 116.665 38.5145C116.022 38.8374 115.158 38.9933 114.116 38.9933H109.992V20.7326C110.014 20.2761 110.181 19.8864 110.502 19.5634C110.823 19.2405 111.211 19.0735 111.666 19.0735H112.386V18.1271H104.96V19.0735H105.68C106.135 19.0735 106.512 19.2294 106.844 19.5634C107.166 19.8864 107.343 20.2761 107.354 20.7326V37.9912C107.332 38.4477 107.166 38.8374 106.844 39.1603C106.523 39.4832 106.146 39.6502 105.68 39.6502H104.96V40.5967H118.372L120.401 34.918H119.436L119.359 35.1073Z" fill="#0D1D32"/>
<path d="M139.433 35.1073C139.111 35.8756 138.734 36.5659 138.313 37.1672C137.914 37.7462 137.382 38.1916 136.739 38.5145C136.096 38.8374 135.232 38.9933 134.19 38.9933H130.066V20.7326C130.088 20.2761 130.255 19.8864 130.576 19.5634C130.898 19.2405 131.286 19.0735 131.74 19.0735H132.461V18.1271H125.034V19.0735H125.754C126.209 19.0735 126.586 19.2294 126.918 19.5634C127.24 19.8864 127.417 20.2761 127.428 20.7326V37.9912C127.406 38.4477 127.24 38.8374 126.918 39.1603C126.597 39.4832 126.22 39.6502 125.754 39.6502H125.034V40.5967H138.446L140.475 34.918H139.51L139.433 35.1073Z" fill="#0D1D32"/>
<path d="M150.152 24.2845C150.506 23.995 150.95 23.8503 151.471 23.8503H151.825L151.848 23.5719H145.563V23.8503H145.951C146.472 23.8503 146.904 23.995 147.27 24.2845C147.624 24.574 147.824 24.9303 147.835 25.3534V38.4922C147.813 38.9042 147.624 39.2494 147.27 39.55C146.904 39.8506 146.472 39.9954 145.951 39.9954H145.563V40.2738H151.848L151.825 39.9954H151.471C150.95 39.9954 150.517 39.8506 150.152 39.55C149.786 39.2494 149.597 38.9042 149.586 38.4922V25.3534C149.608 24.9303 149.797 24.574 150.152 24.2845Z" fill="#0D1D32"/>
<path d="M174.66 23.583H171.501V23.8614H171.966C172.387 23.8614 172.753 23.995 173.052 24.2845C173.352 24.574 173.507 24.908 173.529 25.3089V36.7998L159.119 23.1599H158.842C159.008 24.5295 159.086 25.6875 159.086 26.6339V38.5479C159.086 38.9599 158.942 39.2939 158.642 39.5723C158.343 39.8506 157.988 39.9954 157.556 39.9954H157.091V40.2738H162.334V39.9954H161.857C161.447 39.9954 161.092 39.8618 160.793 39.5723C160.494 39.2828 160.338 38.9487 160.338 38.5479L160.316 26.9234L174.748 40.6635H175.003C174.915 39.9731 174.848 39.3607 174.815 38.8151C174.782 38.2695 174.759 37.7017 174.759 37.1004V25.2978C174.759 24.8858 174.915 24.5517 175.214 24.2734C175.513 23.995 175.879 23.8503 176.278 23.8503H176.755V23.5719H174.671L174.66 23.583Z" fill="#0D1D32"/>
<path d="M201.95 31.1434C201.728 33.2033 201.207 34.8624 200.387 36.0649C199.578 37.2674 198.558 38.1471 197.372 38.6704C196.164 39.2048 194.834 39.4721 193.426 39.4721C191.752 39.4275 190.267 38.9933 189.014 38.1471C187.75 37.312 186.764 36.1317 186.055 34.6285C185.345 33.1142 184.979 31.3327 184.979 29.3062C184.979 27.2797 185.345 25.4982 186.055 24.0061C186.764 22.5141 187.762 21.345 189.047 20.521C190.322 19.6971 191.863 19.2739 193.614 19.2739C195.366 19.2739 196.995 19.7305 198.347 20.6435C199.677 21.5454 200.575 22.8816 201.008 24.6185L201.063 24.8524H201.95L201.263 19.9532L201.141 19.8752C200.21 19.2628 199.101 18.7395 197.849 18.3275C196.596 17.9155 195.166 17.704 193.603 17.704C191.286 17.704 189.236 18.1939 187.507 19.1626C185.777 20.1313 184.414 21.512 183.461 23.249C182.507 24.986 182.02 27.0347 182.02 29.3396C182.02 31.6445 182.507 33.76 183.472 35.497C184.436 37.234 185.8 38.6036 187.518 39.5611C189.236 40.5187 191.209 41.0086 193.415 41.0309C194.867 41.0309 196.186 40.8194 197.328 40.4074C198.469 39.9954 199.467 39.4164 200.309 38.7038C201.152 37.9912 201.85 37.1561 202.404 36.243L202.848 30.865H201.983L201.95 31.1434Z" fill="#0D1D32"/>
<path d="M226.48 19.1626C224.762 18.1939 222.744 17.704 220.494 17.704C218.244 17.704 216.249 18.1939 214.531 19.1626C212.813 20.1313 211.449 21.512 210.485 23.2601C209.521 25.0083 209.033 27.057 209.033 29.373C209.033 31.689 209.521 33.7378 210.485 35.4859C211.449 37.234 212.813 38.6147 214.531 39.5834C216.249 40.5521 218.255 41.042 220.494 41.042C222.733 41.042 224.773 40.5521 226.48 39.5834C228.198 38.6147 229.561 37.234 230.526 35.4859C231.49 33.7378 231.978 31.689 231.978 29.373C231.978 27.057 231.49 25.0083 230.526 23.2601C229.561 21.512 228.198 20.1313 226.48 19.1626ZM220.494 39.4609C218.832 39.4609 217.346 39.0378 216.094 38.2027C214.83 37.3676 213.832 36.1874 213.134 34.6842C212.425 33.181 212.059 31.3884 212.059 29.3619C212.059 27.3354 212.414 25.5538 213.134 24.0395C213.844 22.5364 214.841 21.3561 216.094 20.521C217.346 19.6859 218.832 19.2628 220.494 19.2628C222.157 19.2628 223.676 19.6859 224.928 20.521C226.192 21.3561 227.189 22.5475 227.888 24.0395C228.597 25.5538 228.963 27.3354 228.963 29.3619C228.963 31.3884 228.597 33.1699 227.888 34.6842C227.178 36.1874 226.181 37.3676 224.928 38.2027C223.676 39.0378 222.179 39.4609 220.494 39.4609Z" fill="#0D1D32"/>
<path d="M247.918 30.8539L241.81 25.1864C241.378 24.7633 241.067 24.3179 240.912 23.8391C240.746 23.3492 240.668 22.915 240.668 22.5475C240.668 21.6679 240.979 20.9219 241.633 20.2538C242.275 19.5969 243.107 19.2739 244.171 19.2739C245.08 19.2739 245.823 19.53 246.454 20.0534C247.064 20.5656 247.363 21.2559 247.363 22.1689V22.4807H248.272V18.0157H246.676C246.565 17.9935 246.443 17.9712 246.332 17.9489C245.967 17.871 245.579 17.8153 245.191 17.7708C244.792 17.7262 244.426 17.704 244.082 17.704C242.852 17.704 241.788 17.9823 240.923 18.5168C240.059 19.0513 239.405 19.7639 238.961 20.6212C238.529 21.4675 238.307 22.3694 238.307 23.2935C238.307 23.9282 238.44 24.6185 238.695 25.3534C238.961 26.0994 239.427 26.7787 240.081 27.3911L246.044 32.9472C246.399 33.2701 246.676 33.6598 246.865 34.0941C247.053 34.5395 247.153 35.0516 247.153 35.6084C247.153 36.7775 246.787 37.6683 246.033 38.3475C245.268 39.0378 244.348 39.4053 243.295 39.4721C242.453 39.5166 241.688 39.3385 241.023 38.971C240.369 38.6036 239.87 38.0468 239.527 37.3231C239.183 36.5882 239.05 35.7086 239.15 34.7176L239.183 34.3724H238.329L238.263 34.5951C238.119 35.0628 237.997 35.5861 237.908 36.154C237.819 36.7218 237.775 37.2674 237.775 37.7796C237.775 38.2918 237.808 38.7372 237.875 39.0824L237.897 39.1826L237.964 39.2494C238.407 39.6948 238.972 40.0622 239.637 40.3294C240.28 40.5967 240.968 40.7859 241.666 40.8973C242.353 41.0086 242.963 41.0532 243.462 41.0532C245.324 41.0532 246.82 40.4742 247.929 39.3385C249.026 38.2027 249.58 36.7107 249.58 34.9069C249.58 34.2611 249.469 33.5707 249.259 32.8804C249.037 32.1678 248.594 31.4886 247.929 30.8762L247.918 30.8539Z" fill="#0D1D32"/>
<path d="M271.727 17.8042C271.295 17.8821 270.829 17.9601 270.33 18.0157C269.843 18.0714 269.366 18.1048 268.923 18.1048H258.525C258.104 18.1048 257.639 18.0714 257.14 18.0157C256.63 17.9489 256.153 17.8821 255.754 17.8042C255.355 17.7262 255.056 17.6483 254.867 17.5704L254.435 17.3922V22.1355L255.377 22.0465V21.2336C255.377 20.7994 255.521 20.4431 255.81 20.1424C256.109 19.8418 256.464 19.6971 256.896 19.6748H262.405V38.0023C262.383 38.4588 262.217 38.8485 261.895 39.1714C261.574 39.4943 261.186 39.6502 260.731 39.6502H260.011V40.5967H267.437V39.6502H266.717C266.262 39.6502 265.886 39.4943 265.553 39.1603C265.232 38.8374 265.054 38.4477 265.043 37.9912V19.6637H270.552C270.973 19.6859 271.317 19.8418 271.627 20.1313C271.927 20.4208 272.071 20.7771 272.071 21.2114V22.0242L273.013 22.1133V17.3477L272.57 17.5481C272.459 17.5926 272.215 17.6817 271.705 17.7708L271.727 17.8042Z" fill="#0D1D32"/>
<path d="M296.435 39.6502C296.013 39.6502 295.57 39.5166 295.105 39.2382C294.65 38.971 294.273 38.5145 293.996 37.8687L285.694 17.9267L285.66 17.6928H285.594L285.284 16.9468L285.128 17.6928H284.785V18.0046C284.785 18.0937 284.763 18.283 284.63 18.6838C284.519 19.029 284.386 19.3853 284.231 19.7527C284.075 20.1202 283.887 20.5656 283.654 21.0889L276.538 38.058C276.25 38.5924 275.906 38.9821 275.507 39.2271C275.053 39.4943 274.609 39.6391 274.188 39.6391H273.589V40.5855H280.462V39.6391H279.863C279.675 39.6391 279.497 39.5834 279.309 39.4609C279.132 39.3384 278.999 39.1714 278.921 38.9487C278.855 38.7595 278.855 38.5368 278.932 38.2584L280.983 33.014H288.919L290.892 38.2695C291.081 38.9042 290.859 39.1492 290.782 39.2382C290.527 39.5166 290.261 39.6502 289.961 39.6502H289.363V40.5967H296.978V39.6502H296.412H296.435ZM285.051 22.6366L288.354 31.444H281.615L285.051 22.6366Z" fill="#0D1D32"/>
<path d="M94.1858 49.9831C93.0995 50.8739 91.5033 51.7312 89.4083 52.5552C87.3022 53.368 84.9412 53.6798 82.3031 53.6575C79.665 53.6352 77.0712 53.8691 73.0364 52.7111C71.6065 52.2991 69.7554 51.6867 67.9042 50.7959C65.7095 49.7493 63.6256 47.8119 62.0848 45.9413C60.9099 44.5272 60.0564 42.857 59.2915 41.1088C58.5489 39.4053 57.9392 37.3565 57.4404 34.9737C57.0192 32.6911 56.7864 30.2415 56.7864 27.6026C56.7864 20.0088 58.571 13.9071 62.1513 9.29737C65.7317 4.68766 70.498 2.3828 76.4615 2.3828C80.6515 2.3828 91.6141 4.54291 96.9236 12.3482L97.4446 11.8472C96.3583 9.58687 95.1834 7.49357 93.5318 6.05721C91.725 4.4761 90.0401 3.49626 87.8675 2.54982C87.8454 2.54982 87.8121 2.53868 87.7899 2.52755C84.3316 0.935305 80.5739 0.100212 76.4726 0.100212C69.0016 0.100212 63.0049 2.62776 58.4713 7.69399C55.6336 10.8673 53.6827 14.6642 52.6297 19.0958C50.5347 13.1054 48.8055 7.82761 46.4113 1.14686C46.4113 1.14686 44.2719 0.53446 42.5538 -0.0111341L37.1002 13.0609L30.2056 29.6514C27.0465 27.9589 24.6079 26.8455 22.9009 26.311C19.5201 25.3089 16.893 24.9192 15.0308 25.153C11.5946 25.565 8.82347 26.645 6.69523 28.3932C4.14578 30.4976 1.91778 33.2144 0.0112305 36.5437L0.676305 36.9668C1.93995 34.9403 3.3366 33.3035 4.86627 32.0453C8.26924 29.2394 12.3484 28.4043 17.0926 29.5178L20.7394 30.7203C22.7013 31.5108 25.1843 32.7913 28.166 34.5172L18.4781 57.8218H23.7544L29.6957 42.4339L30.7044 39.7282H30.6933L31.0369 38.8485L31.8794 36.6773L44.6266 44.1597L46.6995 45.3957L54.636 50.0276C62.8608 54.8823 70.1877 57.4989 76.6167 57.8887C79.6539 58.1336 82.5248 57.8998 85.2294 57.2094C87.9341 56.5191 90.2618 55.3611 92.2238 53.7577C94.1747 52.1432 95.926 50.1835 97.4557 47.8787L96.9126 47.3442C96.1921 48.2016 95.2831 49.0701 94.1968 49.972L94.1858 49.9831ZM33.8192 31.6667L42.5427 9.21943C43.6844 11.5132 44.937 14.6642 46.3226 18.695L53.1618 38.9599L53.4167 39.7282L54.3146 42.4339L54.8466 43.6364L33.8081 31.6445L33.8192 31.6667Z" fill="url(#paint0_linear_111_692)"/>
</g>
<defs>
<linearGradient id="paint0_linear_111_692" x1="0.000145898" y1="28.9944" x2="97.4446" y2="28.9944" gradientUnits="userSpaceOnUse">
<stop stop-color="#B0814B"/>
<stop offset="0.51" stop-color="#E3B478"/>
<stop offset="1" stop-color="#E2B377"/>
</linearGradient>
<clipPath id="clip0_111_692">
<rect width="297" height="58" fill="white"/>
</clipPath>
</defs>
</svg>
