<svg width="148" height="110" viewBox="0 0 148 110" fill="none" xmlns="http://www.w3.org/2000/svg">
<path d="M147.2 6.19998C134.133 11.2666 127.6 20.0666 127.6 32.6C127.6 40.0666 130.667 47.5333 136.8 55C143.2 62.4667 146.4 70.7333 146.4 79.8C146.4 88.6 143.733 95.8 138.4 101.4C133.067 106.733 126.667 109.4 119.2 109.4C104 109.4 93.4667 102.6 87.6 89C83.6 80.7333 81.6 73.8 81.6 68.2C81.6 52.2 84.9333 39.1333 91.6 29C98.2667 18.6 105.733 11.2666 114 6.99997C122.533 2.73331 129.333 0.599984 134.4 0.599984C139.733 0.599984 143.6 0.866647 146 1.39997L147.2 6.19998ZM66.8 6.19998C53.4667 11 46.8 19.8 46.8 32.6C46.8 40.0666 50 47.5333 56.4 55C62.8 62.4667 66 70.7333 66 79.8C66 88.6 63.3333 95.8 58 101.4C52.6667 106.733 46.2667 109.4 38.8 109.4C23.6 109.4 12.9333 102.6 6.8 89C2.8 80.7333 0.8 73.8 0.8 68.2C0.8 52.2 4.13333 39.1333 10.8 29C17.4667 18.6 25.0667 11.2666 33.6 6.99997C42.1333 2.73331 48.9333 0.599984 54 0.599984C59.0667 0.599984 62.8 0.866647 65.2 1.39997L66.8 6.19998Z" fill="#E0D7CF"/>
</svg>
