<svg width="30" height="30" viewBox="0 0 30 30" fill="none" xmlns="http://www.w3.org/2000/svg">
<path fill-rule="evenodd" clip-rule="evenodd" d="M30 15C30 23.2843 23.2843 30 15 30C6.71573 30 0 23.2843 0 15C0 6.71573 6.71573 0 15 0C23.2843 0 30 6.71573 30 15ZM23.3109 9.95341C23.402 9.95119 23.4042 9.95564 23.4042 10.0423C23.4033 10.1237 23.4093 10.5107 23.4167 10.994C23.4277 11.7115 23.442 12.6411 23.442 13.0979C23.442 13.2734 23.4175 13.2823 23.242 13.2823C22.682 13.2823 22.1331 13.2067 21.5887 13.0823C20.6531 12.869 19.7887 12.489 18.9887 11.9623C18.9778 11.9549 18.9668 11.9455 18.9556 11.936C18.9235 11.9088 18.8905 11.8808 18.8575 11.8956C18.8158 11.9157 18.8217 11.962 18.8273 12.0055C18.8291 12.0199 18.8309 12.034 18.8309 12.0467C18.8301 12.8069 18.831 13.5669 18.8319 14.3266C18.8335 15.7189 18.8351 17.1106 18.8264 18.5023C18.8176 20.0067 18.3398 21.3512 17.3553 22.4979C16.3109 23.7156 14.982 24.4223 13.3864 24.6179C12.1575 24.7667 10.9909 24.5445 9.88422 23.9979C9.70422 23.9112 9.5331 23.8067 9.37311 23.6867C9.34756 23.6645 9.32256 23.6423 9.29757 23.6201C9.27256 23.5979 9.24756 23.5756 9.22199 23.5534C9.11837 23.5093 9.03132 23.4386 8.9451 23.3687C8.93147 23.3576 8.91786 23.3466 8.90422 23.3356C7.91533 22.5512 7.21755 21.5645 6.83533 20.3601C6.70199 19.9401 6.61755 19.5112 6.57755 19.0734C6.54644 18.7556 6.54422 18.4379 6.56422 18.1223C6.61311 17.3934 6.78422 16.6934 7.08644 16.0267C7.39977 15.329 7.82866 14.7112 8.37533 14.1756C9.01088 13.5534 9.74644 13.0867 10.5864 12.7845C11.1131 12.5956 11.6553 12.4801 12.2131 12.4401C12.6175 12.409 13.0198 12.4201 13.422 12.4667C13.4753 12.4734 13.5064 12.4845 13.5064 12.549C13.4998 12.7712 13.4998 12.9956 13.4998 13.2179C13.5042 13.2223 13.5331 14.9156 13.5331 15.6912V15.7734C13.5287 15.8512 13.4887 15.8756 13.4153 15.8556C13.2042 15.7956 12.9864 15.7667 12.7664 15.7556C12.4264 15.7356 12.0909 15.7845 11.7731 15.9023C10.7064 16.2956 10.0598 17.0601 9.92422 18.1845C9.79088 19.2934 10.2287 20.1801 11.1509 20.8179C11.1664 20.8285 11.1821 20.8391 11.1977 20.8497C11.2603 20.892 11.3229 20.9343 11.3798 20.9823C11.3953 20.9979 11.4131 21.0134 11.4309 21.029L11.459 21.0401C11.663 21.1209 11.8676 21.202 12.0864 21.2445C12.8109 21.389 13.4931 21.2779 14.1198 20.8912C14.8442 20.4445 15.2709 19.789 15.422 18.9534C15.4509 18.7956 15.4553 18.6356 15.4553 18.4734V5.51341C15.4553 5.41303 15.4486 5.36919 15.4672 5.35042C15.4857 5.33179 15.529 5.33786 15.6287 5.33786H18.6175H18.6887C18.7909 5.33786 18.7909 5.34008 18.7909 5.4423C18.7909 5.67341 18.8864 6.21563 18.8953 6.25786C19.3264 8.4423 21.8731 9.77786 22.6575 9.89563C22.8731 9.92897 23.0909 9.95341 23.3109 9.95341Z" fill="#23B0BA"/>
</svg>
