<svg width="30" height="30" viewBox="0 0 30 30" fill="none" xmlns="http://www.w3.org/2000/svg">
<g clip-path="url(#clip0_244_195)">
<path d="M15.0001 29.9845C23.2757 29.9845 29.9845 23.2757 29.9845 15.0001C29.9845 6.72439 23.2757 0.015625 15.0001 0.015625C6.72439 0.015625 0.015625 6.72439 0.015625 15.0001C0.015625 23.2757 6.72439 29.9845 15.0001 29.9845Z" fill="#0D1D32"/>
<path d="M5.76951 6.31836L12.9319 15.895L5.72437 23.6812H7.34662L13.6569 16.8641L18.7553 23.6812H24.2755L16.71 13.566L23.4188 6.31836H21.7965L15.9852 12.5966L11.2897 6.31836H5.76951ZM8.1551 7.51318H10.6911L21.8896 22.4864H19.3537L8.1551 7.51318Z" fill="#F5F1EC"/>
</g>
<defs>
<clipPath id="clip0_244_195">
<rect width="30" height="30" fill="white"/>
</clipPath>
</defs>
</svg>
