<svg width="57" height="71" viewBox="0 0 57 71" fill="none" xmlns="http://www.w3.org/2000/svg">
<g clip-path="url(#clip0_16_198)">
<path d="M16.5454 55.866C11.3119 56.9542 6.721 55.9567 8.00644 61.9414C9.29188 67.9261 14.6173 71.9159 19.8508 70.8277C25.0844 69.7396 28.3898 63.8456 27.1044 57.8609C25.8189 51.8763 21.8708 54.6872 16.5454 55.866Z" fill="url(#paint0_linear_16_198)"/>
<path d="M16.0863 53.2363C16.4536 53.1456 16.729 53.055 17.0963 52.9643C18.8408 52.4202 20.4935 51.7855 21.8708 50.6067C23.3399 49.3372 24.1662 47.433 24.5335 45.5288C25.4516 40.8136 24.8089 35.5543 23.248 31.1112C21.9626 27.4841 20.0344 24.129 17.1881 21.4994C14.9845 19.4138 11.9545 17.691 8.83277 18.235C5.61917 18.7791 3.23193 21.6808 1.85468 24.6731C-0.165297 29.2069 -0.440748 34.2849 0.569239 39.0907C1.30378 42.5364 2.86466 45.8915 4.60919 48.9745C5.71099 50.788 7.18006 52.5109 9.20004 53.327C11.4955 54.2338 13.8827 53.8711 16.0863 53.2363Z" fill="url(#paint1_linear_16_198)"/>
<path d="M42.2542 38.1841C37.0206 37.8214 32.6134 34.557 31.6034 40.6324C30.5934 46.7077 34.2661 52.239 39.5915 53.0551C44.9169 53.8712 50.0587 49.6094 50.9768 43.534C51.895 37.4587 47.4878 39.3629 42.2542 38.1841Z" fill="url(#paint2_linear_16_198)"/>
<path d="M47.7632 0.0998642C42.8051 -0.625551 39.3161 2.91085 37.0206 6.71928C34.5416 10.7091 33.1643 15.3336 32.7971 20.0488C32.6134 22.4971 32.7971 24.9453 33.2561 27.3936C33.7152 29.4792 34.0825 31.6554 35.9188 33.1062C37.1125 34.013 38.5815 34.4664 40.0506 34.8291C42.1624 35.3732 44.2742 35.5545 46.4778 35.5545C49.1405 35.5545 50.7932 34.5571 52.2623 32.3808C55.0168 28.3911 56.5777 23.7665 56.9449 18.9607C57.2204 14.5175 56.4858 9.43958 54.4659 5.35912C53.7313 3.99897 52.8132 2.63882 51.6195 1.64137C50.4259 0.825279 49.2323 0.371895 47.7632 0.0998642Z" fill="url(#paint3_linear_16_198)"/>
</g>
<defs>
<linearGradient id="paint0_linear_16_198" x1="7.78815" y1="62.5865" x2="27.3821" y2="62.5865" gradientUnits="userSpaceOnUse">
<stop stop-color="#B0814B"/>
<stop offset="0.51" stop-color="#E3B478"/>
<stop offset="1" stop-color="#E2B377"/>
</linearGradient>
<linearGradient id="paint1_linear_16_198" x1="-0.000671387" y1="36.0003" x2="24.9566" y2="36.0003" gradientUnits="userSpaceOnUse">
<stop stop-color="#B0814B"/>
<stop offset="0.51" stop-color="#E3B478"/>
<stop offset="1" stop-color="#E2B377"/>
</linearGradient>
<linearGradient id="paint2_linear_16_198" x1="31.436" y1="45.0688" x2="51.0986" y2="45.0688" gradientUnits="userSpaceOnUse">
<stop stop-color="#B0814B"/>
<stop offset="0.51" stop-color="#E3B478"/>
<stop offset="1" stop-color="#E2B377"/>
</linearGradient>
<linearGradient id="paint3_linear_16_198" x1="32.7267" y1="17.7772" x2="57.0006" y2="17.7772" gradientUnits="userSpaceOnUse">
<stop stop-color="#B0814B"/>
<stop offset="0.51" stop-color="#E3B478"/>
<stop offset="1" stop-color="#E2B377"/>
</linearGradient>
<clipPath id="clip0_16_198">
<rect width="57" height="71" fill="white"/>
</clipPath>
</defs>
</svg>
