<svg width="72" height="71" viewBox="0 0 72 71" fill="none" xmlns="http://www.w3.org/2000/svg">
<g clip-path="url(#clip0_16_204)">
<path d="M36 0L0 35.3404L9.28 35.4202V71H62.64V35.4202L72 35.3404L36 0ZM53.44 41.0843C53.04 42.2809 52.24 43.3978 51.36 44.2753L36 59.5921L20.88 44.5944L20.8 44.5146L20.64 44.3551C20.56 44.3551 20.56 44.2753 20.56 44.2753C19.68 43.318 18.96 42.3607 18.56 41.0843C18.24 40.0472 18 39.0101 18 37.8933C18 32.9472 22 28.9584 26.96 28.9584C28 28.9584 29.12 29.1978 30.16 29.5169C33.52 30.7933 36 34.064 36 37.8933C36 33.9843 38.48 30.7933 41.84 29.5169C42.88 29.118 43.92 28.9584 45.04 28.9584C50 28.9584 54 32.9472 54 37.8933C54 39.0101 53.76 40.127 53.44 41.0843Z" fill="url(#paint0_linear_16_204)"/>
</g>
<defs>
<linearGradient id="paint0_linear_16_204" x1="0" y1="35.4952" x2="72" y2="35.4952" gradientUnits="userSpaceOnUse">
<stop stop-color="#B0814B"/>
<stop offset="0.51" stop-color="#E3B478"/>
<stop offset="1" stop-color="#E2B377"/>
</linearGradient>
<clipPath id="clip0_16_204">
<rect width="72" height="71" fill="white"/>
</clipPath>
</defs>
</svg>
