<svg width="63" height="73" viewBox="0 0 63 73" fill="none" xmlns="http://www.w3.org/2000/svg">
<g clip-path="url(#clip0_16_209)">
<path fill-rule="evenodd" clip-rule="evenodd" d="M24.942 55.2537L17.1775 72.1941C16.9624 72.6857 16.4767 73 15.9511 73C15.4095 73.0081 14.9158 72.6937 14.6928 72.1941L10.9579 64.7393C10.7269 64.2236 10.2093 63.9012 9.65186 63.9334L1.40158 64.3928C0.899871 64.4009 0.437982 64.1349 0.183147 63.6997C-0.0716881 63.2645 -0.0637245 62.7246 0.183147 62.2894L10.7986 46.9769C12.0887 47.4363 13.0523 48.5323 13.3549 49.8863C13.7929 51.8124 14.9954 53.4726 16.6917 54.4558C18.38 55.4471 20.4027 55.6728 22.2662 55.0925C23.1502 54.8346 24.0899 54.891 24.934 55.2537H24.942ZM35.5574 55.2053C34.5142 56.3417 33.0489 56.9864 31.5119 56.9864C29.975 56.9864 28.5097 56.3417 27.4664 55.2053C26.033 53.6419 23.835 53.0455 21.8202 53.6741C20.3549 54.1335 18.7622 53.9562 17.4243 53.1825C16.0864 52.4088 15.1308 51.1032 14.7884 49.5881C14.3185 47.5088 12.7258 45.8809 10.6792 45.3731C9.18201 45.0266 7.89191 44.0676 7.1274 42.7217C6.3629 41.3758 6.17973 39.772 6.63366 38.2891C7.23889 36.2421 6.64959 34.0258 5.12058 32.5671C3.99771 31.5114 3.35266 30.0285 3.35266 28.4731C3.35266 26.9176 3.98975 25.4348 5.12058 24.379C6.64959 22.9203 7.23889 20.704 6.63366 18.665C6.17973 17.1822 6.3629 15.5703 7.1274 14.2325C7.89191 12.8866 9.18201 11.9276 10.6792 11.573C12.7178 11.0894 14.3106 9.47759 14.7884 7.41444C15.1308 5.89931 16.0785 4.59373 17.4084 3.82005C18.7383 3.04637 20.3231 2.861 21.7963 3.32038C23.8111 3.94899 26.0091 3.35261 27.4425 1.78913C28.4858 0.652791 29.9511 0.00805664 31.488 0.00805664C33.025 0.00805664 34.4903 0.652791 35.5335 1.78913C36.967 3.35261 39.1649 3.94899 41.1797 3.32038C42.653 2.84489 44.2537 3.01413 45.5995 3.79587C46.9374 4.56955 47.901 5.88319 48.2355 7.40638C48.7053 9.48565 50.314 11.1136 52.3686 11.5891C53.8657 11.9356 55.1479 12.8947 55.9124 14.2406C56.6769 15.5864 56.8601 17.1902 56.4061 18.6812C55.7929 20.7201 56.3663 22.9445 57.8953 24.4112C59.0182 25.467 59.6632 26.9499 59.6632 28.5053C59.6632 30.0607 59.0261 31.5436 57.8953 32.5994C56.3583 34.0661 55.777 36.2743 56.3822 38.3214C56.8202 39.7962 56.6371 41.3919 55.8726 42.7297C55.1081 44.0676 53.8259 45.0185 52.3367 45.3651C50.2901 45.8728 48.6974 47.5008 48.2275 49.58C47.8851 51.0952 46.9295 52.3927 45.5995 53.1664C44.2696 53.9401 42.6849 54.1254 41.2196 53.666C39.1968 53.0294 36.9909 53.6257 35.5495 55.1973L35.5574 55.2053ZM45.2651 42.4074C49.5415 38.0796 51.5882 31.9869 50.7998 25.9183C50.0114 19.8497 46.4755 14.4985 41.2434 11.436C36.0114 8.37348 29.6564 7.9544 24.0739 10.2916C18.4835 12.6368 14.2946 17.4723 12.7258 23.3877C11.1649 29.3032 12.3993 35.6135 16.0785 40.4732C19.7577 45.3248 25.4676 48.1777 31.5119 48.1777C36.6723 48.1777 41.6177 46.1065 45.2651 42.4154V42.4074ZM49.4539 28.4892C49.4539 34.1306 46.8578 39.4577 42.438 42.899C38.0102 46.3403 32.2605 47.4927 26.8692 46.034C21.4778 44.5753 17.066 40.6585 14.9397 35.4442C12.8054 30.23 13.1877 24.3065 15.975 19.4145C18.7622 14.5307 23.6359 11.2264 29.1706 10.493C34.7053 9.7516 40.256 11.6616 44.1979 15.6509C47.5665 19.0519 49.4619 23.6698 49.4539 28.4892ZM42.661 20.7121C42.2548 20.2124 41.6735 19.89 41.0364 19.8336C40.3993 19.7692 39.7702 19.9706 39.2764 20.3817L26.5347 31.1648L22.2582 25.5234C21.4459 24.4515 19.9408 24.2501 18.8817 25.0721C17.8225 25.8941 17.6234 27.4173 18.4277 28.4892L24.2332 36.1938C24.6314 36.7337 25.2287 37.0803 25.8817 37.1528C26.5347 37.2253 27.1957 37.0238 27.6974 36.5887L42.3743 24.1533C42.868 23.7423 43.1786 23.1459 43.2343 22.4932C43.2901 21.8484 43.083 21.2037 42.661 20.7121ZM62.8328 62.2894L52.2173 46.9769C50.9272 47.4363 49.9636 48.5323 49.661 49.8863C49.223 51.8124 48.0205 53.4726 46.3242 54.4558C44.6359 55.4471 42.6132 55.6728 40.7497 55.0925C39.8657 54.8185 38.9181 54.8669 38.066 55.2215L45.8384 72.1457C46.0535 72.6373 46.5392 72.9516 47.0648 72.9516C47.6064 72.9597 48.1001 72.6454 48.3231 72.1457L52.058 64.691C52.289 64.1752 52.8066 63.8528 53.364 63.8851L61.6143 64.3444C62.1001 64.3444 62.554 64.0865 62.8009 63.6675C63.0557 63.2484 63.0637 62.7246 62.8328 62.2894Z" fill="url(#paint0_linear_16_209)"/>
</g>
<defs>
<linearGradient id="paint0_linear_16_209" x1="-0.00500488" y1="36.4991" x2="62.9993" y2="36.4991" gradientUnits="userSpaceOnUse">
<stop stop-color="#B0814B"/>
<stop offset="0.51" stop-color="#E3B478"/>
<stop offset="1" stop-color="#E2B377"/>
</linearGradient>
<clipPath id="clip0_16_209">
<rect width="63" height="73" fill="white"/>
</clipPath>
</defs>
</svg>
