<svg width="60" height="73" viewBox="0 0 60 73" fill="none" xmlns="http://www.w3.org/2000/svg">
<g clip-path="url(#clip0_16_191)">
<path d="M25.4846 24.2892C25.4445 24.3014 21.4313 25.5146 17.2136 28.4494C12.4967 31.7305 9.41565 35.7445 8.02846 40.4077C11.0835 35.6784 16.107 32.0264 22.1309 30.2997C22.8465 30.0943 23.5923 29.915 24.348 29.7618C25.206 29.5895 26.076 29.4572 26.948 29.3632C27.2386 29.3319 27.5293 29.3058 27.818 29.2832C28.5697 29.2257 29.3174 29.1979 30.0371 29.1979C31.6408 29.1979 33.2585 29.3336 34.8481 29.6C42.8866 30.949 49.6061 35.5948 52.9698 41.9691C53.2505 40.7054 53.3908 39.419 53.3908 38.1205C53.3908 32.3189 50.5182 26.7818 45.5087 22.9315C45.3724 22.827 45.234 22.7243 45.0957 22.6216C45.0115 22.559 44.9253 22.498 44.8391 22.4371C44.787 22.4006 44.7369 22.3623 44.6848 22.3257C44.5625 22.2387 44.4362 22.1551 44.3119 22.0698C44.2979 22.0611 44.2859 22.0524 44.2718 22.0437C41.6237 20.2735 38.5827 19.0289 35.3573 18.3744C35.3172 18.3657 35.2791 18.3587 35.239 18.35C35.0927 18.3204 34.9444 18.2926 34.796 18.2665C34.7439 18.2578 34.6898 18.2491 34.6377 18.2386C34.4192 18.2003 34.2007 18.1655 33.9802 18.1325C33.8659 18.115 33.7496 18.0994 33.6354 18.0837C33.5431 18.0715 33.4489 18.0593 33.3567 18.0472C33.1903 18.0263 33.026 18.0071 32.8596 17.9897C32.8135 17.9845 32.7694 17.9793 32.7253 17.9758C32.5128 17.9549 32.2983 17.9358 32.0858 17.9201C32.0617 17.9201 32.0357 17.9201 32.0096 17.9201C31.5907 17.8888 31.1717 17.8679 30.7587 17.8557C30.5463 17.8505 30.3338 17.8452 30.1253 17.8435C30.0852 17.8435 30.0431 17.8435 30.003 17.8435H29.8607C29.8607 17.8435 29.8607 17.8435 29.8567 17.8435H29.8366H29.8326C29.6923 17.8435 29.548 17.847 29.4036 17.8505C29.3976 17.8505 29.3916 17.8505 29.3856 17.8505C29.1731 17.8557 28.9606 17.8644 28.7481 17.8748C28.714 17.8748 28.678 17.8783 28.6439 17.8801C28.4234 17.8905 28.2069 17.9044 27.9924 17.9201C16.0449 18.8218 6.68738 27.6939 6.68738 38.1188C6.68738 38.2876 6.68938 38.4547 6.6954 38.6218C8.75814 33.1805 12.7674 29.452 16.101 27.1421C20.5673 24.0472 24.7088 22.8009 24.8832 22.7504C25.3724 22.606 25.9016 22.8323 26.068 23.257C26.2343 23.68 25.9737 24.1412 25.4866 24.2857L25.4846 24.2892Z" fill="url(#paint0_linear_16_191)"/>
<path d="M22.2252 11.6799C22.2392 11.6816 22.2512 11.6851 22.2653 11.6868C22.4757 11.7216 22.6842 11.7599 22.8847 11.8C23.0972 11.8417 23.3097 11.8887 23.5181 11.9357C23.5622 11.9462 23.6083 11.9566 23.6524 11.9671C25.6911 12.4423 27.6035 13.1786 29.3636 14.1638C29.4057 14.1882 29.4478 14.2108 29.4899 14.2352C29.6522 14.3274 29.8126 14.4214 29.971 14.5171C29.981 14.5224 29.991 14.5276 30.0011 14.5346C30.0251 14.5189 30.0492 14.5067 30.0752 14.491C30.2516 14.3849 30.428 14.2804 30.6084 14.1795C30.6185 14.1742 30.6265 14.169 30.6365 14.1638C30.8249 14.0594 31.0154 13.9567 31.2058 13.8574C31.2499 13.8348 31.296 13.8104 31.3401 13.7878C31.5306 13.6903 31.725 13.5946 31.9195 13.5023C31.9355 13.4936 31.9535 13.4867 31.9716 13.478C32.154 13.3909 32.3404 13.3091 32.5249 13.2273C32.569 13.2082 32.6111 13.189 32.6552 13.1716C32.8536 13.0863 33.0521 13.0045 33.2545 12.9262C33.2866 12.914 33.3187 12.9018 33.3508 12.8896C33.5332 12.82 33.7156 12.7521 33.9 12.686C33.9401 12.672 33.9782 12.6581 34.0183 12.6442C34.2228 12.5728 34.4312 12.5032 34.6397 12.437C34.6798 12.4249 34.7219 12.4109 34.764 12.3988C34.9544 12.3396 35.1469 12.2821 35.3393 12.2282C35.3614 12.2212 35.3814 12.216 35.4035 12.209C31.725 4.87038 23.2415 0 13.9722 0C12.4767 0 10.9953 0.121847 9.54199 0.36554C15.2231 2.62144 19.7435 6.63019 22.2252 11.6799Z" fill="url(#paint1_linear_16_191)"/>
<path d="M13.481 21.5461C16.2052 19.5025 19.4527 17.9655 22.8926 17.0952C24.3961 16.714 25.9396 16.4598 27.5032 16.3276C27.8079 16.0699 28.1226 15.821 28.4474 15.5808C28.3933 15.5495 28.3391 15.5181 28.285 15.4886C26.5129 14.5068 24.5484 13.7914 22.4696 13.3806C22.1268 13.3127 21.78 13.2535 21.4052 13.1996C20.4009 13.0534 19.3765 12.9785 18.3622 12.9785C9.72231 12.9785 2.34534 18.0943 0.424926 25.4208C0.206423 26.2511 0.0661007 27.0918 0.00195312 27.9361C3.33362 24.3886 8.18678 22.0613 13.483 21.5461H13.481Z" fill="url(#paint2_linear_16_191)"/>
<path d="M59.5771 25.4206C57.6567 18.0941 50.2797 12.9766 41.6398 12.9766C40.2667 12.9766 38.8855 13.1123 37.5344 13.3787C37.3199 13.4204 37.1074 13.4674 36.8969 13.5162C36.6303 13.5771 36.3657 13.645 36.1051 13.7163C36.0229 13.739 35.9427 13.7633 35.8605 13.786C35.6801 13.8364 35.5017 13.8904 35.3233 13.9461C35.2291 13.9757 35.1369 14.007 35.0427 14.0366C34.8763 14.0923 34.7099 14.1498 34.5455 14.209C34.4533 14.242 34.3611 14.2751 34.2709 14.3082C34.0965 14.3743 33.9241 14.4422 33.7517 14.5136C33.6755 14.5449 33.6013 14.5745 33.5252 14.6058C33.2826 14.7085 33.0401 14.8164 32.8015 14.9296C32.7734 14.9435 32.7434 14.9592 32.7153 14.9731C32.5068 15.0741 32.2983 15.1768 32.0939 15.2847C32.0157 15.3265 31.9395 15.3682 31.8613 15.4118C31.7591 15.4675 31.6589 15.5249 31.5566 15.5823C31.5727 15.5945 31.5867 15.605 31.6027 15.6172C31.6188 15.6293 31.6368 15.6415 31.6529 15.6537C31.6569 15.6572 31.6609 15.6589 31.6649 15.6624C31.7411 15.7199 31.8172 15.7808 31.8934 15.8382C31.9676 15.8957 32.0418 15.9531 32.1159 16.0123C32.146 16.0349 32.1761 16.0593 32.2061 16.0819C32.2603 16.1254 32.3144 16.1724 32.3685 16.2159C32.4126 16.2525 32.4587 16.289 32.5028 16.3256C32.5389 16.3291 32.573 16.3326 32.6091 16.336C32.7815 16.3517 32.9559 16.3691 33.1283 16.3865C33.2084 16.3952 33.2886 16.4039 33.3688 16.4126C33.5192 16.43 33.6695 16.4492 33.8219 16.4683C33.9842 16.4892 34.1446 16.5119 34.307 16.5362C34.4172 16.5536 34.5295 16.5693 34.6397 16.5867C34.7781 16.6093 34.9164 16.6337 35.0547 16.6563C35.1208 16.6685 35.185 16.679 35.2511 16.6911C35.4055 16.719 35.5619 16.7486 35.7162 16.7799C35.7222 16.7799 35.7262 16.7817 35.7322 16.7834C36.6564 16.9679 37.5665 17.1959 38.4585 17.471C40.7919 18.1881 42.9649 19.189 44.9474 20.4545C44.9555 20.4597 44.9635 20.4649 44.9695 20.4684C45.1018 20.5537 45.2341 20.639 45.3644 20.726C45.3965 20.7469 45.4306 20.7695 45.4626 20.7921C45.5709 20.8653 45.6771 20.9384 45.7834 21.0115C45.8375 21.048 45.8916 21.0863 45.9437 21.1246C46.0319 21.1873 46.1201 21.2499 46.2083 21.3143C46.2765 21.3631 46.3427 21.4118 46.4108 21.4623C46.4489 21.4902 46.487 21.518 46.5231 21.5459C51.8192 22.0611 56.6704 24.3866 60.0041 27.9358C59.9399 27.0916 59.7996 26.2526 59.5811 25.4206H59.5771Z" fill="url(#paint3_linear_16_191)"/>
<path d="M55.221 71.3778H35.4235L35.0827 63.1009C34.9264 63.2036 34.7339 63.2663 34.5234 63.2663H28.9185C28.4034 63.2663 27.9844 62.9025 27.9844 62.4551C27.9844 62.0078 28.4034 61.644 28.9185 61.644H34.5234C34.7099 61.644 34.8823 61.6927 35.0286 61.7745L34.1566 40.5558H28.9205C28.4054 40.5558 27.9864 40.192 27.9864 39.7447C27.9864 39.2973 28.4054 38.9335 28.9205 38.9335H34.0904L33.7677 31.0831C33.7376 31.0796 33.7096 31.0744 33.6795 31.0709C33.4029 31.0326 33.1242 30.9978 32.8476 30.97C32.8436 30.97 32.8416 30.97 32.8376 30.97C32.5589 30.9404 32.2783 30.9178 31.9996 30.8969C31.9475 30.8934 31.8954 30.8899 31.8433 30.8847C31.5747 30.8673 31.304 30.8516 31.0354 30.8429C30.9833 30.8412 30.9332 30.8394 30.8811 30.8377C30.6004 30.829 30.3218 30.822 30.0431 30.822C29.3756 30.822 28.684 30.8481 27.9864 30.9021C27.7398 30.9212 27.4933 30.9439 27.2447 30.97C27.1665 30.9787 27.0903 30.9874 27.0122 30.9961C26.8418 31.0152 26.6694 31.0361 26.499 31.0587C26.4108 31.0709 26.3226 31.0831 26.2344 31.0953C26.068 31.1197 25.9036 31.144 25.7372 31.1719C25.653 31.1858 25.5688 31.198 25.4866 31.2137C25.4486 31.2206 25.4105 31.2276 25.3724 31.2346L21.722 48.6673H27.0563C27.5714 48.6673 27.9904 49.0311 27.9904 49.4785C27.9904 49.9258 27.5714 50.2896 27.0563 50.2896H21.4514C21.4273 50.2896 21.4053 50.2861 21.3832 50.2844L18.3242 64.8903H23.3197C23.8348 64.8903 24.2538 65.2541 24.2538 65.7015C24.2538 66.1488 23.8348 66.5126 23.3197 66.5126H17.9854L16.9671 71.3795H1.04242C0.52724 71.3795 0.108276 71.7433 0.108276 72.1907C0.108276 72.638 0.52724 73.0018 1.04242 73.0018H55.221C55.7362 73.0018 56.1552 72.638 56.1552 72.1907C56.1552 71.7433 55.7362 71.3795 55.221 71.3795V71.3778Z" fill="url(#paint4_linear_16_191)"/>
</g>
<defs>
<linearGradient id="paint0_linear_16_191" x1="6.68738" y1="29.9047" x2="53.3908" y2="29.9047" gradientUnits="userSpaceOnUse">
<stop stop-color="#B0814B"/>
<stop offset="0.51" stop-color="#E3B478"/>
<stop offset="1" stop-color="#E2B377"/>
</linearGradient>
<linearGradient id="paint1_linear_16_191" x1="9.54199" y1="7.26629" x2="35.4035" y2="7.26629" gradientUnits="userSpaceOnUse">
<stop stop-color="#B0814B"/>
<stop offset="0.51" stop-color="#E3B478"/>
<stop offset="1" stop-color="#E2B377"/>
</linearGradient>
<linearGradient id="paint2_linear_16_191" x1="0.00195312" y1="20.4563" x2="28.4474" y2="20.4563" gradientUnits="userSpaceOnUse">
<stop stop-color="#B0814B"/>
<stop offset="0.51" stop-color="#E3B478"/>
<stop offset="1" stop-color="#E2B377"/>
</linearGradient>
<linearGradient id="paint3_linear_16_191" x1="31.5566" y1="20.4552" x2="60.0041" y2="20.4552" gradientUnits="userSpaceOnUse">
<stop stop-color="#B0814B"/>
<stop offset="0.51" stop-color="#E3B478"/>
<stop offset="1" stop-color="#E2B377"/>
</linearGradient>
<linearGradient id="paint4_linear_16_191" x1="0.108276" y1="51.9091" x2="56.1552" y2="51.9091" gradientUnits="userSpaceOnUse">
<stop stop-color="#B0814B"/>
<stop offset="0.51" stop-color="#E3B478"/>
<stop offset="1" stop-color="#E2B377"/>
</linearGradient>
<clipPath id="clip0_16_191">
<rect width="60" height="73" fill="white"/>
</clipPath>
</defs>
</svg>
