<svg width="30" height="30" viewBox="0 0 30 30" fill="none" xmlns="http://www.w3.org/2000/svg">
<path d="M17.4041 14.7491L14.0351 13.1771C13.7411 13.0406 13.4996 13.1936 13.4996 13.5191V16.4801C13.4996 16.8056 13.7411 16.9586 14.0351 16.8221L17.4026 15.2501C17.6981 15.1121 17.6981 14.8871 17.4041 14.7491ZM14.9996 0.599609C7.04661 0.599609 0.599609 7.04661 0.599609 14.9996C0.599609 22.9526 7.04661 29.3996 14.9996 29.3996C22.9526 29.3996 29.3996 22.9526 29.3996 14.9996C29.3996 7.04661 22.9526 0.599609 14.9996 0.599609ZM14.9996 20.8496C7.62861 20.8496 7.49961 20.1851 7.49961 14.9996C7.49961 9.81411 7.62861 9.14961 14.9996 9.14961C22.3706 9.14961 22.4996 9.81411 22.4996 14.9996C22.4996 20.1851 22.3706 20.8496 14.9996 20.8496Z" fill="#54595F"/>
</svg>
